# xmcd CD database file
#
# Track frame offsets:
#	150
#	13758
#	31688
#	46978
#	63210
#	78272
#	91890
#	105216
#	115884
#	125780
#	142434
#	158126
#	175064
#	192424
#	206058
#	219928
#	237542
#	253328
#
# Disc length: 3613 seconds
#
# Revision: 0
# Processed by: cddbd v1.5.2PL0 Copyright (c) Steve Scherf et al.
# Submitted via: CDex 1.51
#
DISCID=fc0e1b12
DTITLE=Mavericks - Line Dance Kurs 6
DYEAR=2012
DGENRE=Country
TTITLE0=Heaven In My Woman 155 2-Step - Two Steppin'Mind (Tim McGraw)
TTITLE1=Heaven in My Woman 168 2-Step - That Changes Everything (John Michael Mont)
TTITLE2=Heaven in My Woman 180 2-Step - Heaven In My Woman's Eyes (Tracy Byrd)
TTITLE3=Pot Of Gold 104 Cha Cha - Pretend (The Mavericks)
TTITLE4=Pot Of Gold 106 Cha Cha - Baby's On The Way (Luke Bryan)
TTITLE5=Pot Of Gold 118 Celtic - Dance Above the Rainbow (Hardiman&Flatley)
TTITLE6=All Shook Up 131 ECS - I Want To Love Again (Dwight Yoakam)
TTITLE7=All Shook Up 137 ECS - It's Only Make Believe 1987 (Ronnie McDowell)
TTITLE8=All Shook Up 151 ECS - All Shook Up (Billy Joel)
TTITLE9=Rio 99 Cha Cha - Here I Am (Billy Currington)
TTITLE10=Rio 114 Cha Cha - Who's Crying Now (Jo Dee Messina)
TTITLE11=Rio 122 Cha Cha - I Don't Know What She Said (Blaine Larsen)
TTITLE12=Jambalaya 107 Samba - Jambalaya Samba (Tony Lewis)
TTITLE13=Jambalaya 118 Polka - My Kind Of Music (Ray Scott)
TTITLE14=Jambalaya 125 Polka - Jambalaya (Eddy Raven)
TTITLE15=California Blue 98 Cha Cha - Since You Ain't Home (Mark Chesnutt)
TTITLE16=California Blue 102 Cha Cha - One More Chance (Trisha Yearwood)
TTITLE17=California Blue 106 Cha Cha - California Blue (Roy Orbison)
EXTD=YEAR: 2012
EXTT0=
EXTT1=
EXTT2=
EXTT3=
EXTT4=
EXTT5=
EXTT6=
EXTT7=
EXTT8=
EXTT9=
EXTT10=
EXTT11=
EXTT12=
EXTT13=
EXTT14=
EXTT15=
EXTT16=
EXTT17=
PLAYORDER=
